<?xml version="1.0" encoding="iso-8859-1"?>
<!-- Uploaded to: SVG Repo, www.svgrepo.com, Generator: SVG Repo Mixer Tools -->
<!DOCTYPE svg PUBLIC "-//W3C//DTD SVG 1.1//EN" "http://www.w3.org/Graphics/SVG/1.1/DTD/svg11.dtd">
<svg fill="#000000" version="1.1" id="Capa_1" xmlns="http://www.w3.org/2000/svg" xmlns:xlink="http://www.w3.org/1999/xlink" 
	 width="800px" height="800px" viewBox="0 0 189.71 189.711"
	 xml:space="preserve">
<g>
	<path d="M186.008,81.112c-2.555-23.711-14.049-45.978-32.565-61.1c-0.274-0.778-0.873-1.454-1.814-1.76
		c-0.275-0.089-0.551-0.181-0.826-0.271C129.762,2.189,102.376-2.408,76.649,1.119C27,7.925,0.459,56.04,3.327,102.868
		c2.721,44.432,34.728,88.665,82.723,86.397c0.394,0.248,0.874,0.412,1.458,0.423c18.752,0.358,34.643-3.511,50.871-12.897
		c11.356-6.568,21.087-15.527,29.028-25.92c0.596-0.148,1.133-0.488,1.423-1.088c0.416-0.857,0.827-1.721,1.233-2.588
		C183.151,128.086,188.476,104.02,186.008,81.112z M79.883,138.191c-3.387-0.256-6.775-0.506-10.163-0.776
		c-6.247-0.497-12.463-1.152-18.65-2.166c-2.68-0.438-5.319-1.007-7.962-1.628c-0.859-0.209-1.719-0.418-2.578-0.627
		c-1.478-1.101-2.415-1.185-2.82-0.269c0.844-11.977,0.291-23.971-0.219-35.958c14.917,0.601,29.841,0.308,44.769-0.134
		C81.997,110.508,81.16,124.377,79.883,138.191z M37.289,91.836c-0.445-11.354-0.662-22.697,0.565-34.004
		c14.341-1.212,28.66-4.019,42.986-6.791c1.099,12.77,1.56,25.58,1.507,38.393C67.275,89.991,52.227,90.868,37.289,91.836z
		 M143.963,147.092c-6.104-1.986-13.297-2.293-19.478-3.323c-8.516-1.42-17.045-2.746-25.612-3.806
		c-4.646-0.575-9.304-1.001-13.964-1.38c1.908-13.972,3.022-28.042,3.39-42.135c18.581-0.584,37.166-1.221,55.749-0.528
		C142.885,113.005,141.897,130.049,143.963,147.092z M144.477,89.57c-18.591-0.94-37.327-0.917-56.049-0.338
		c0.105-13.127-0.442-26.261-1.602-39.342c18.846-3.592,37.713-6.716,56.667-5.69c0.52,7.442,1.84,14.839,1.898,22.377
		C145.452,74.239,144.995,81.917,144.477,89.57z"/>
</g>
</svg>